<?xml version="1.0" standalone="no"?><!DOCTYPE svg PUBLIC "-//W3C//DTD SVG 1.1//EN" "http://www.w3.org/Graphics/SVG/1.1/DTD/svg11.dtd"><svg t="1626761312189" class="icon" viewBox="0 0 3098 1024" version="1.1" xmlns="http://www.w3.org/2000/svg" p-id="27210" xmlns:xlink="http://www.w3.org/1999/xlink" width="145.21875" height="48"><defs><style type="text/css"></style></defs><path d="M968.736508 967.65291h-910.222222v-910.222222c13.003175-2.167196 857.125926-3.250794 910.222222-1.083598v911.30582zM707.589418 238.391534h-80.186243L398.764021 467.030688V256.812698c-6.501587-7.585185-13.003175-13.003175-18.421164-18.421164h-56.34709l-17.337566 17.337567v507.123809l17.337566 17.337566H379.259259l18.421164-18.421164V593.81164l67.183069-67.183069s1.083598 0 1.083598-1.083597h2.167196C525.544974 610.065608 582.975661 695.669841 639.322751 780.190476h80.186244c4.334392-9.752381 9.752381-18.421164 14.086772-28.173545-2.167196-3.250794-4.334392-7.585185-7.585185-10.835979-14.086772-18.421164-26.006349-37.925926-39.009524-56.34709-13.003175-18.421164-26.006349-37.925926-39.009524-57.430687-15.17037-21.671958-30.340741-44.427513-45.511111-66.099471-15.17037-21.671958-30.340741-44.427513-45.511111-66.099471-8.668783-11.919577-16.253968-23.839153-24.922751-36.842328l180.960846-180.960847c7.585185-7.585185 7.585185-7.585185 2.167196-18.421164-3.250794-6.501587-5.417989-11.919577-7.585185-20.58836z" fill="#CE0A15" p-id="27211"></path><path d="M1236.385185 243.809524h83.437037v249.227513h2.167196l200.465608-249.227513h92.105821l-163.623281 202.632804L1641.650794 769.354497H1549.544974l-148.452911-257.896296-81.269841 98.607407V769.354497h-83.437037V243.809524zM1667.657143 574.306878c0-127.86455 87.771429-206.967196 179.877249-206.967195 104.025397 0 160.372487 74.768254 160.372486 186.378836 0 16.253968-1.083598 32.507937-3.250793 41.176719h-255.729101c6.501587 74.768254 54.179894 120.279365 121.362963 120.279365 34.675132 0 65.015873-10.835979 93.189418-29.257143l28.173545 52.012699c-36.842328 23.839153-81.269841 41.17672-133.28254 41.176719-106.192593 1.083598-190.713228-74.768254-190.713227-204.8z m268.732275-35.75873c0-68.266667-30.340741-107.27619-87.771429-107.27619-49.845503 0-93.189418 37.925926-100.774603 107.27619h188.546032zM2098.929101 377.092063h67.183068l6.501588 70.433863h2.167195c28.173545-50.929101 69.350265-81.269841 111.610582-81.269841 19.504762 0 32.507937 3.250794 44.427514 8.668783l-15.170371 71.51746c-14.086772-4.334392-23.839153-6.501587-39.009524-6.501587-32.507937 0-70.433862 21.671958-95.356613 84.520635V769.354497h-81.269842V377.092063zM2349.240212 666.412698c0-84.520635 71.51746-127.86455 235.14074-146.285714-1.083598-45.511111-17.337566-85.604233-74.768254-85.604233-41.17672 0-80.186243 18.421164-113.777777 40.093122l-30.340741-55.263492c41.17672-26.006349 95.356614-52.012698 159.288889-52.012698 97.52381 0 143.034921 61.765079 143.03492 166.874074v236.224338H2600.634921l-7.585186-45.511111h-3.250793c-35.75873 30.340741-78.019048 54.179894-125.697355 54.179894-67.183069 1.083598-114.861376-43.343915-114.861375-112.69418z m235.14074 2.167196v-96.440211c-117.028571 14.086772-156.038095 43.343915-156.038095 87.771428 0 39.009524 26.006349 54.179894 61.76508 54.179894 33.591534 0 61.765079-16.253968 94.273015-45.511111zM2741.502646 724.926984l39.009523-53.096296c34.675132 28.173545 69.350265 45.511111 111.610582 45.511111 47.678307 0 69.350265-22.755556 69.350265-53.096296 0-35.75873-44.427513-52.012698-87.771429-68.266667-52.012698-19.504762-112.69418-47.678307-112.69418-114.861376 0-66.099471 53.096296-114.861376 139.784127-114.861375 53.096296 0 95.356614 21.671958 127.864551 46.594709l-39.009524 50.9291c-27.089947-19.504762-55.263492-34.675132-87.771429-34.675132-43.343915 0-62.848677 21.671958-62.848677 48.761905 0 33.591534 41.17672 46.594709 83.437037 61.765079 55.263492 20.58836 115.944974 45.511111 115.944974 119.195767 0 66.099471-52.012698 119.195767-149.536508 119.195767-54.179894 2.167196-109.443386-21.671958-147.369312-53.096296z" fill="#2F2F2F" p-id="27212"></path></svg>